<?xml version="1.0" encoding="UTF-8" standalone="no"?> <svg width="512" height="512" viewBox="0 0 512 512" fill="none" xmlns="http://www.w3.org/2000/svg">
<path d="M456 176H304V248C304 258.609 299.786 268.783 292.284 276.284C284.783 283.786 274.609 288 264 288H192V376C192 386.609 196.214 396.783 203.716 404.284C211.217 411.786 221.391 416 232 416H408L456 464V416C466.609 416 476.783 411.786 484.284 404.284C491.786 396.783 496 386.609 496 376V216C496 205.391 491.786 195.217 484.284 187.716C476.783 180.214 466.609 176 456 176Z" fill="#57A4FF"/>
<path d="M456 168H312V88C311.986 75.2738 306.925 63.0726 297.926 54.0738C288.927 45.075 276.726 40.0135 264 40H56C43.2738 40.0135 31.0726 45.075 22.0738 54.0738C13.075 63.0726 8.0135 75.2738 8 88V248C8.01562 259.339 12.0385 270.308 19.3578 278.969C26.6772 287.629 36.822 293.424 48 295.33V336C47.9988 337.583 48.4673 339.131 49.3462 340.448C50.2252 341.765 51.4751 342.791 52.9377 343.397C54.4003 344.003 56.0098 344.161 57.5625 343.852C59.1151 343.543 60.5412 342.78 61.66 341.66L107.31 296H184V376C184.014 388.726 189.075 400.927 198.074 409.926C207.073 418.925 219.274 423.986 232 424H404.69L450.34 469.66C451.459 470.78 452.885 471.543 454.438 471.852C455.99 472.161 457.6 472.003 459.062 471.397C460.525 470.791 461.775 469.765 462.654 468.448C463.533 467.131 464.001 465.583 464 464V423.33C475.178 421.424 485.323 415.629 492.642 406.969C499.962 398.308 503.984 387.339 504 376V216C503.986 203.274 498.925 191.073 489.926 182.074C480.927 173.075 468.726 168.014 456 168V168ZM104 280C101.878 279.999 99.8421 280.841 98.34 282.34L64 316.69V288C64 285.878 63.1571 283.843 61.6569 282.343C60.1566 280.843 58.1217 280 56 280C47.5165 279.989 39.3836 276.614 33.3849 270.615C27.3861 264.616 24.0111 256.484 24 248V88C24.0111 79.5165 27.3861 71.3836 33.3849 65.3849C39.3836 59.3861 47.5165 56.0111 56 56H264C272.484 56.0111 280.616 59.3861 286.615 65.3849C292.614 71.3836 295.989 79.5165 296 88V248C295.989 256.484 292.614 264.616 286.615 270.615C280.616 276.614 272.484 279.989 264 280H104ZM488 376C487.989 384.484 484.614 392.616 478.615 398.615C472.616 404.614 464.484 407.989 456 408C453.878 408 451.843 408.843 450.343 410.343C448.843 411.843 448 413.878 448 416V444.69L413.66 410.34C412.158 408.841 410.122 407.999 408 408H232C223.516 407.989 215.384 404.614 209.385 398.615C203.386 392.616 200.011 384.484 200 376V296H264C276.726 295.986 288.927 290.925 297.926 281.926C306.925 272.927 311.986 260.726 312 248V184H456C464.484 184.011 472.616 187.386 478.615 193.385C484.614 199.384 487.989 207.516 488 216V376Z" fill="#004FAC"/>
<path d="M198.4 220.8C199.03 219.96 199.489 219.003 199.75 217.985C200.01 216.968 200.068 215.909 199.92 214.869C199.771 213.829 199.419 212.828 198.884 211.924C198.349 211.02 197.64 210.23 196.8 209.6L185.078 200.808C189.616 193.33 192.01 184.748 192 176V144C192 131.27 186.943 119.061 177.941 110.059C168.939 101.057 156.73 96 144 96C131.27 96 119.061 101.057 110.059 110.059C101.057 119.061 96 131.27 96 144V176C95.9953 185.111 98.5851 194.035 103.466 201.727C108.348 209.42 115.319 215.564 123.564 219.44C131.809 223.317 140.987 224.765 150.025 223.616C159.063 222.466 167.587 218.767 174.6 212.951L187.2 222.4C188.04 223.03 188.997 223.489 190.015 223.75C191.032 224.01 192.091 224.068 193.131 223.92C194.171 223.771 195.172 223.419 196.076 222.884C196.98 222.349 197.77 221.64 198.4 220.8V220.8ZM144 208C135.516 207.99 127.382 204.616 121.383 198.617C115.384 192.618 112.01 184.484 112 176V144C112 135.513 115.371 127.374 121.373 121.373C127.374 115.371 135.513 112 144 112C152.487 112 160.626 115.371 166.627 121.373C172.629 127.374 176 135.513 176 144V176C176.006 181.285 174.695 186.487 172.185 191.138L164.8 185.6C163.103 184.327 160.969 183.78 158.869 184.08C156.768 184.38 154.873 185.503 153.6 187.2C152.327 188.897 151.78 191.031 152.08 193.131C152.38 195.232 153.503 197.127 155.2 198.4L161.245 202.934C156.104 206.246 150.116 208.005 144 208Z" fill="#004FAC"/>
<path d="M399.53 349.31L359.53 237.31C358.976 235.756 357.955 234.412 356.607 233.461C355.259 232.51 353.65 232 352 232C350.35 232 348.741 232.51 347.393 233.461C346.045 234.412 345.024 235.756 344.47 237.31L304.47 349.31C304.078 350.308 303.89 351.374 303.918 352.445C303.946 353.516 304.189 354.571 304.633 355.547C305.076 356.522 305.711 357.399 306.5 358.125C307.288 358.85 308.215 359.41 309.224 359.77C310.233 360.131 311.305 360.285 312.375 360.223C313.445 360.162 314.491 359.886 315.453 359.412C316.414 358.938 317.27 358.276 317.971 357.465C318.671 356.654 319.201 355.71 319.53 354.69L331.92 320H372.08L384.47 354.69C385.23 356.624 386.713 358.187 388.605 359.047C390.497 359.907 392.65 359.997 394.607 359.297C396.564 358.598 398.172 357.165 399.091 355.301C400.01 353.437 400.167 351.288 399.53 349.31ZM337.64 304L352 263.79L366.36 304H337.64Z" fill="#004FAC"/>
</svg>
